<?xml version="1.0" standalone="no"?>
<!DOCTYPE svg PUBLIC "-//W3C//DTD SVG 20010904//EN"
 "http://www.w3.org/TR/2001/REC-SVG-20010904/DTD/svg10.dtd">
<svg version="1.0" xmlns="http://www.w3.org/2000/svg"
 width="750.000000pt" height="750.000000pt" viewBox="0 0 750.000000 750.000000"
 preserveAspectRatio="xMidYMid meet">
<metadata>
Created by potrace 1.14, written by Peter Selinger 2001-2017
</metadata>
<g transform="translate(0.000000,750.000000) scale(0.100000,-0.100000)"
fill="#000000" stroke="none">
<path d="M2470 6307 c0 -107 -3 -255 -7 -330 l-6 -137 -1229 0 -1228 0 0 -70
0 -70 1230 0 1230 0 0 -435 0 -435 -1230 0 -1230 0 0 -70 0 -70 1230 0 1230 0
0 -440 0 -440 -1230 0 -1230 0 0 -65 0 -65 1230 0 1230 0 0 -235 c0 -129 -2
-235 -4 -235 -3 0 -20 9 -38 19 -55 33 -146 52 -249 52 -256 1 -484 -90 -659
-263 -60 -59 -150 -184 -150 -207 0 -8 -202 -11 -680 -11 l-680 0 0 -70 0 -70
653 0 652 0 -3 -89 c-6 -141 34 -230 136 -304 87 -63 150 -81 292 -81 107 1
138 4 215 28 230 70 452 228 560 399 l30 47 2483 0 2482 0 0 70 0 70 -2456 0
c-2336 0 -2456 1 -2448 18 5 9 10 207 12 440 l3 422 368 0 368 0 -9 -52 c-20
-106 8 -168 74 -168 66 0 94 41 104 149 l7 71 1988 0 1989 0 0 65 0 65 -1984
0 -1983 0 -6 173 c-5 186 -27 301 -81 421 -32 73 -32 86 1 196 l28 90 2012 0
2013 0 0 70 0 70 -1997 0 -1998 0 0 163 c0 138 -4 174 -23 242 -37 128 -104
235 -263 418 l-41 47 2161 0 2161 0 0 70 0 70 -2230 0 -2230 0 -98 89 c-197
179 -260 273 -302 453 -12 53 -28 98 -38 106 -8 6 -42 12 -74 12 l-58 0 0
-193z m379 -656 c83 -31 173 -96 258 -184 130 -136 197 -242 229 -362 14 -51
19 -230 8 -259 -5 -12 -20 -16 -58 -16 l-51 0 -52 68 c-28 37 -130 152 -227
255 -189 202 -223 245 -266 341 -43 93 -56 152 -39 172 18 22 123 14 198 -15z
m-71 -681 c62 -22 139 -66 192 -111 l34 -29 -197 0 -197 0 0 86 0 87 56 -7
c30 -3 81 -15 112 -26z m369 -322 c145 -229 200 -408 210 -675 l6 -163 -377 0
-376 0 0 440 0 440 255 0 255 0 27 -42z"/>
<path d="M3255 3423 c-133 -70 -154 -241 -42 -340 74 -65 179 -66 267 -2 116
84 100 268 -29 336 -53 28 -149 31 -196 6z"/>
<path d="M3765 3424 c-149 -77 -159 -278 -17 -361 126 -74 289 1 316 145 14
77 -38 173 -115 212 -47 25 -141 27 -184 4z"/>
<path d="M4275 3424 c-76 -39 -118 -108 -117 -191 2 -183 233 -269 357 -132
44 49 56 79 57 140 0 81 -49 152 -129 186 -43 18 -131 16 -168 -3z"/>
<path d="M4785 3424 c-76 -39 -118 -108 -117 -191 2 -183 233 -269 357 -132
44 49 56 79 57 140 0 81 -49 152 -129 186 -43 18 -131 16 -168 -3z"/>
<path d="M5295 3424 c-76 -39 -118 -108 -117 -191 2 -183 233 -269 357 -132
44 49 56 79 57 140 0 81 -49 152 -129 186 -43 18 -131 16 -168 -3z"/>
<path d="M5805 3424 c-76 -39 -118 -108 -117 -191 2 -183 233 -269 357 -132
44 49 56 79 57 140 0 81 -49 152 -129 186 -43 18 -131 16 -168 -3z"/>
<path d="M6315 3424 c-76 -39 -118 -108 -117 -191 2 -183 233 -269 357 -132
44 49 56 79 57 140 0 81 -49 152 -129 186 -43 18 -131 16 -168 -3z"/>
<path d="M6825 3424 c-76 -39 -118 -108 -117 -191 2 -183 233 -269 357 -132
44 49 56 79 57 140 0 81 -49 152 -129 186 -43 18 -131 16 -168 -3z"/>
<path d="M7335 3424 c-186 -96 -141 -362 66 -390 24 -3 56 -1 72 5 l27 11 0
189 c0 163 -2 190 -16 195 -30 12 -119 6 -149 -10z"/>
<path d="M0 1720 l0 -70 3750 0 3750 0 0 70 0 70 -3750 0 -3750 0 0 -70z"/>
</g>
</svg>
